<svg xmlns="http://www.w3.org/2000/svg" xmlns:xlink="http://www.w3.org/1999/xlink" x="0" y="0" version="1.1" viewBox="0 0 252 170" xml:space="preserve" style="enable-background:new 0 0 252 170"><g id="logo-vert-on-blue"><g><g><g><g><path style="fill:#f4f2f0" d="M32.501,166.792l-12.817-20.614H9.443v20.614H3.43v-46.249h16.65 c8.787,0,14.535,5.087,14.535,12.817c0,5.682-3.237,10.043-8.589,11.893l13.346,21.539H32.501z M9.443,140.759h9.977 c5.682,0,9.052-2.708,9.052-7.399s-3.37-7.466-9.052-7.466H9.443V140.759z"/><path style="fill:#f4f2f0" d="M69.307,145.451v21.341h-5.55v-5.682c-1.916,3.832-6.277,6.21-11.101,6.21 c-6.673,0-11.231-4.096-11.231-9.845c0-6.408,5.22-9.91,15.856-10.967l6.476-0.728v-0.66c0-4.56-3.238-7.466-8.127-7.466 c-4.559,0-7.797,2.709-8.259,7.201l-5.22-0.991c0.991-6.606,6.475-10.901,13.479-10.901 C63.691,132.963,69.307,137.72,69.307,145.451z M63.757,151.727v-1.585l-6.476,0.727c-6.739,0.727-10.24,3.039-10.24,6.541 c0,3.105,2.643,5.285,6.475,5.285C59.991,162.695,63.757,158.401,63.757,151.727z"/><path style="fill:#f4f2f0" d="M75.52,150.142c0-9.778,5.682-17.179,15.989-17.179c4.427,0,8.787,2.181,10.901,5.285v-18.235 h5.616v46.778h-5.616v-4.823c-1.52,3.039-5.946,5.352-10.836,5.352C81.202,167.32,75.52,159.92,75.52,150.142z M102.939,150.142c0-7.334-4.294-12.157-10.835-12.157s-10.836,4.823-10.836,12.157c0,7.333,4.295,12.156,10.836,12.156 S102.939,157.475,102.939,150.142z"/><path style="fill:#f4f2f0" d="M115.034,123.317c0-2.246,1.652-3.964,3.898-3.964c2.312,0,4.03,1.718,4.03,3.964 c0,2.181-1.718,3.898-4.03,3.898C116.686,127.215,115.034,125.498,115.034,123.317z M116.158,133.492h5.615v33.3h-5.615 V133.492z"/><path style="fill:#f4f2f0" d="M127.985,150.142c0-9.977,7.004-17.179,16.914-17.179c9.845,0,16.98,7.202,16.98,17.179 s-7.136,17.178-16.98,17.178C134.989,167.32,127.985,160.119,127.985,150.142z M156.065,150.142 c0-7.136-4.493-12.157-11.166-12.157s-11.166,5.021-11.166,12.157s4.493,12.156,11.166,12.156S156.065,157.278,156.065,150.142 z"/><path style="fill:#f4f2f0" d="M168.092,120.013h5.616v46.778h-5.616V120.013z"/><path style="fill:#f4f2f0" d="M207.934,145.451v21.341h-5.55v-5.682c-1.916,3.832-6.277,6.21-11.101,6.21 c-6.673,0-11.231-4.096-11.231-9.845c0-6.408,5.22-9.91,15.856-10.967l6.476-0.728v-0.66c0-4.56-3.238-7.466-8.127-7.466 c-4.559,0-7.797,2.709-8.259,7.201l-5.22-0.991c0.991-6.606,6.475-10.901,13.479-10.901 C202.318,132.963,207.934,137.72,207.934,145.451z M202.384,151.727v-1.585l-6.476,0.727c-6.739,0.727-10.24,3.039-10.24,6.541 c0,3.105,2.643,5.285,6.475,5.285C198.618,162.695,202.384,158.401,202.384,151.727z"/><path style="fill:#f4f2f0" d="M221.679,161.968v4.823h-5.616v-46.778h5.616v18.235c2.114-3.104,6.475-5.285,10.901-5.285 c10.307,0,15.989,7.4,15.989,17.179s-5.683,17.178-16.056,17.178C227.625,167.32,223.199,165.007,221.679,161.968z M242.822,150.142c0-7.334-4.295-12.157-10.836-12.157s-10.77,4.823-10.77,12.157c0,7.333,4.229,12.156,10.77,12.156 S242.822,157.475,242.822,150.142z"/></g></g></g><g><linearGradient id="SVGID_1_" x1="61.572" x2="85.614" y1="55.131" y2="55.131" gradientUnits="userSpaceOnUse"><stop offset="0" style="stop-color:#ffc1e5"/><stop offset=".086" style="stop-color:#f6bde4"/><stop offset=".226" style="stop-color:#deb3e3"/><stop offset=".403" style="stop-color:#b6a1e1"/><stop offset=".61" style="stop-color:#7f89dd"/><stop offset=".84" style="stop-color:#396bd9"/><stop offset="1" style="stop-color:#0454d6"/></linearGradient><path style="fill:url(#SVGID_1_)" d="M61.572,2.68l0,104.902c15.168-14.94,24.043-32.998,24.043-52.451 C85.614,35.678,76.74,17.62,61.572,2.68z"/><linearGradient id="SVGID_00000142139732190281331880000015659146381232340904_" x1="85.614" x2="106.152" y1="55.131" y2="55.131" gradientUnits="userSpaceOnUse"><stop offset="0" style="stop-color:#ffc1e5"/><stop offset=".086" style="stop-color:#f6bde4"/><stop offset=".226" style="stop-color:#deb3e3"/><stop offset=".403" style="stop-color:#b6a1e1"/><stop offset=".61" style="stop-color:#7f89dd"/><stop offset=".84" style="stop-color:#396bd9"/><stop offset="1" style="stop-color:#0454d6"/></linearGradient><path style="fill:url(#SVGID_00000142139732190281331880000015659146381232340904_)" d="M85.614,12.244l0,85.774 c12.957-12.216,20.537-26.981,20.537-42.887C106.152,39.225,98.571,24.46,85.614,12.244z"/><linearGradient id="SVGID_00000113332566169124677040000010641785271872346766_" x1="106.152" x2="123.651" y1="55.131" y2="55.131" gradientUnits="userSpaceOnUse"><stop offset="0" style="stop-color:#ffc1e5"/><stop offset=".096" style="stop-color:#f9bee5"/><stop offset=".222" style="stop-color:#e9b7e4"/><stop offset=".364" style="stop-color:#ceace2"/><stop offset=".518" style="stop-color:#a89be0"/><stop offset=".683" style="stop-color:#7786dd"/><stop offset=".853" style="stop-color:#3d6dd9"/><stop offset="1" style="stop-color:#0454d6"/></linearGradient><path style="fill:url(#SVGID_00000113332566169124677040000010641785271872346766_)" d="M106.152,20.485l0,69.293 c11.04-9.868,17.499-21.797,17.499-34.646C123.651,42.281,117.191,30.353,106.152,20.485z"/><linearGradient id="SVGID_00000081610381549347055780000015359827314511733902_" x1="161.533" x2="185.576" y1="55.131" y2="55.131" gradientUnits="userSpaceOnUse"><stop offset="0" style="stop-color:#0454d6"/><stop offset=".161" style="stop-color:#396bd9"/><stop offset=".39" style="stop-color:#7f89dd"/><stop offset=".597" style="stop-color:#b6a1e1"/><stop offset=".774" style="stop-color:#deb3e3"/><stop offset=".914" style="stop-color:#f6bde4"/><stop offset="1" style="stop-color:#ffc1e5"/></linearGradient><path style="fill:url(#SVGID_00000081610381549347055780000015359827314511733902_)" d="M185.576,107.582V2.68 c-15.168,14.94-24.043,32.998-24.043,52.451C161.533,74.584,170.408,92.642,185.576,107.582z"/><linearGradient id="SVGID_00000047018445035178542480000008831306457805842357_" x1="140.964" x2="161.502" y1="55.131" y2="55.131" gradientUnits="userSpaceOnUse"><stop offset="0" style="stop-color:#0454d6"/><stop offset=".161" style="stop-color:#396bd9"/><stop offset=".39" style="stop-color:#7f89dd"/><stop offset=".597" style="stop-color:#b6a1e1"/><stop offset=".774" style="stop-color:#deb3e3"/><stop offset=".914" style="stop-color:#f6bde4"/><stop offset="1" style="stop-color:#ffc1e5"/></linearGradient><path style="fill:url(#SVGID_00000047018445035178542480000008831306457805842357_)" d="M161.502,98.018V12.244 c-12.957,12.216-20.537,26.981-20.537,42.887C140.964,71.037,148.545,85.802,161.502,98.018z"/><linearGradient id="SVGID_00000057150627368912509370000011687721190619238790_" x1="123.434" x2="140.933" y1="55.131" y2="55.131" gradientUnits="userSpaceOnUse"><stop offset="0" style="stop-color:#0454d6"/><stop offset=".147" style="stop-color:#3d6dd9"/><stop offset=".317" style="stop-color:#7786dd"/><stop offset=".482" style="stop-color:#a89be0"/><stop offset=".636" style="stop-color:#ceace2"/><stop offset=".778" style="stop-color:#e9b7e4"/><stop offset=".904" style="stop-color:#f9bee5"/><stop offset="1" style="stop-color:#ffc1e5"/></linearGradient><path style="fill:url(#SVGID_00000057150627368912509370000011687721190619238790_)" d="M140.933,89.778V20.485 c-11.04,9.868-17.499,21.797-17.499,34.646C123.434,67.981,129.893,79.909,140.933,89.778z"/></g></g></g></svg>