<svg xmlns="http://www.w3.org/2000/svg" xmlns:xlink="http://www.w3.org/1999/xlink" id="Layer_1" x="0" y="0" version="1.1" viewBox="0 0 18 18" xml:space="preserve" style="enable-background:new 0 0 18 18"><style type="text/css">.st0{fill:#0a0b0c}.st1{fill:#fff}</style><circle cx="9" cy="9" r="9" class="st0"/><path d="M6.8,13.5L6.8,13.5c-0.5,0-0.8-0.4-0.8-0.8V5.3c0-0.5,0.4-0.8,0.8-0.8h0c0.5,0,0.8,0.4,0.8,0.8v7.3	C7.6,13.1,7.2,13.5,6.8,13.5z" class="st1"/><path d="M11.2,13.5L11.2,13.5c-0.5,0-0.8-0.4-0.8-0.8V5.3c0-0.5,0.4-0.8,0.8-0.8h0c0.5,0,0.8,0.4,0.8,0.8v7.3	C12,13.1,11.7,13.5,11.2,13.5z" class="st1"/></svg>