<svg xmlns="http://www.w3.org/2000/svg" xmlns:xlink="http://www.w3.org/1999/xlink" x="0" y="0" version="1.1" viewBox="0 0 194 166" xml:space="preserve" style="enable-background:new 0 0 194 166"><g id="rl-icon-on-lightblue"><g><linearGradient id="SVGID_1_" x1="2.213" x2="38.969" y1="83" y2="83" gradientUnits="userSpaceOnUse"><stop offset="0" style="stop-color:#ffc1e5"/><stop offset=".092" style="stop-color:#ffbcdc"/><stop offset=".242" style="stop-color:#ffadc4"/><stop offset=".431" style="stop-color:#ff949c"/><stop offset=".652" style="stop-color:#ff7365"/><stop offset=".898" style="stop-color:#ff481f"/><stop offset="1" style="stop-color:#ff3500"/></linearGradient><path style="fill:url(#SVGID_1_)" d="M2.213,2.815l0,160.371C25.402,140.346,38.969,112.74,38.969,83 C38.969,53.26,25.402,25.654,2.213,2.815z"/><linearGradient id="SVGID_00000162341530369056362560000008954200313316761264_" x1="38.969" x2="70.366" y1="83" y2="83" gradientUnits="userSpaceOnUse"><stop offset="0" style="stop-color:#ffc1e5"/><stop offset=".092" style="stop-color:#ffbcdc"/><stop offset=".242" style="stop-color:#ffadc4"/><stop offset=".431" style="stop-color:#ff949c"/><stop offset=".652" style="stop-color:#ff7365"/><stop offset=".898" style="stop-color:#ff481f"/><stop offset="1" style="stop-color:#ff3500"/></linearGradient><path style="fill:url(#SVGID_00000162341530369056362560000008954200313316761264_)" d="M38.969,17.436l0,131.128 C58.776,129.889,70.366,107.317,70.366,83C70.366,58.683,58.776,36.111,38.969,17.436z"/><linearGradient id="SVGID_00000168097277150966024960000017846016595335471550_" x1="70.366" x2="97.118" y1="83" y2="83" gradientUnits="userSpaceOnUse"><stop offset="0" style="stop-color:#ffc1e5"/><stop offset=".092" style="stop-color:#ffbcdc"/><stop offset=".242" style="stop-color:#ffadc4"/><stop offset=".431" style="stop-color:#ff949c"/><stop offset=".652" style="stop-color:#ff7365"/><stop offset=".898" style="stop-color:#ff481f"/><stop offset="1" style="stop-color:#ff3500"/></linearGradient><path style="fill:url(#SVGID_00000168097277150966024960000017846016595335471550_)" d="M70.366,30.034l0,105.933 C87.243,120.88,97.118,102.644,97.118,83C97.118,63.356,87.243,45.12,70.366,30.034z"/><linearGradient id="SVGID_00000051343326068194158500000000947313819070927490_" x1="155.031" x2="191.787" y1="83" y2="83" gradientUnits="userSpaceOnUse"><stop offset="0" style="stop-color:#ff3500"/><stop offset=".102" style="stop-color:#ff481f"/><stop offset=".347" style="stop-color:#ff7365"/><stop offset=".569" style="stop-color:#ff949c"/><stop offset=".758" style="stop-color:#ffadc4"/><stop offset=".908" style="stop-color:#ffbcdc"/><stop offset="1" style="stop-color:#ffc1e5"/></linearGradient><path style="fill:url(#SVGID_00000051343326068194158500000000947313819070927490_)" d="M191.787,163.186V2.815 C168.598,25.654,155.031,53.26,155.031,83C155.031,112.74,168.598,140.346,191.787,163.186z"/><linearGradient id="SVGID_00000124156479159733459860000003428823351219596179_" x1="123.586" x2="154.983" y1="83" y2="83" gradientUnits="userSpaceOnUse"><stop offset="0" style="stop-color:#ff3500"/><stop offset=".102" style="stop-color:#ff481f"/><stop offset=".347" style="stop-color:#ff7365"/><stop offset=".569" style="stop-color:#ff949c"/><stop offset=".758" style="stop-color:#ffadc4"/><stop offset=".908" style="stop-color:#ffbcdc"/><stop offset="1" style="stop-color:#ffc1e5"/></linearGradient><path style="fill:url(#SVGID_00000124156479159733459860000003428823351219596179_)" d="M154.983,148.564l0-131.128 C135.176,36.111,123.586,58.683,123.586,83C123.586,107.317,135.176,129.889,154.983,148.564z"/><linearGradient id="SVGID_00000082337219395131838780000009464120115852148661_" x1="96.786" x2="123.538" y1="83" y2="83" gradientUnits="userSpaceOnUse"><stop offset="0" style="stop-color:#ff3500"/><stop offset=".102" style="stop-color:#ff481f"/><stop offset=".347" style="stop-color:#ff7365"/><stop offset=".569" style="stop-color:#ff949c"/><stop offset=".758" style="stop-color:#ffadc4"/><stop offset=".908" style="stop-color:#ffbcdc"/><stop offset="1" style="stop-color:#ffc1e5"/></linearGradient><path style="fill:url(#SVGID_00000082337219395131838780000009464120115852148661_)" d="M123.538,135.966l0-105.933 C106.661,45.12,96.786,63.356,96.786,83C96.786,102.644,106.661,120.88,123.538,135.966z"/></g></g></svg>