<svg xmlns="http://www.w3.org/2000/svg" xmlns:xlink="http://www.w3.org/1999/xlink" x="0" y="0" version="1.1" viewBox="0 0 194 166" xml:space="preserve" style="enable-background:new 0 0 194 166"><g id="rl-icon-on-redorange"><g><linearGradient id="SVGID_1_" x1="2.213" x2="38.969" y1="83" y2="83" gradientUnits="userSpaceOnUse"><stop offset="0" style="stop-color:#bcc0ce"/><stop offset=".133" style="stop-color:#b4b7c5"/><stop offset=".351" style="stop-color:#9da0ad"/><stop offset=".625" style="stop-color:#777a85"/><stop offset=".943" style="stop-color:#44464f"/><stop offset="1" style="stop-color:#3a3c44"/></linearGradient><path style="fill:url(#SVGID_1_)" d="M2.213,2.815l0,160.371C25.402,140.346,38.969,112.74,38.969,83 C38.969,53.26,25.402,25.654,2.213,2.815z"/><linearGradient id="SVGID_00000084517008912079401710000003901571114529565568_" x1="38.969" x2="70.366" y1="83" y2="83" gradientUnits="userSpaceOnUse"><stop offset="0" style="stop-color:#bcc0ce"/><stop offset=".133" style="stop-color:#b4b7c5"/><stop offset=".351" style="stop-color:#9da0ad"/><stop offset=".625" style="stop-color:#777a85"/><stop offset=".943" style="stop-color:#44464f"/><stop offset="1" style="stop-color:#3a3c44"/></linearGradient><path style="fill:url(#SVGID_00000084517008912079401710000003901571114529565568_)" d="M38.969,17.436l0,131.128 C58.776,129.889,70.366,107.317,70.366,83C70.366,58.683,58.776,36.111,38.969,17.436z"/><linearGradient id="SVGID_00000049927867697820934140000008034435993583816105_" x1="70.366" x2="97.118" y1="83" y2="83" gradientUnits="userSpaceOnUse"><stop offset="0" style="stop-color:#bcc0ce"/><stop offset=".133" style="stop-color:#b4b7c5"/><stop offset=".351" style="stop-color:#9da0ad"/><stop offset=".625" style="stop-color:#777a85"/><stop offset=".943" style="stop-color:#44464f"/><stop offset="1" style="stop-color:#3a3c44"/></linearGradient><path style="fill:url(#SVGID_00000049927867697820934140000008034435993583816105_)" d="M70.366,30.034l0,105.933 C87.243,120.88,97.118,102.644,97.118,83C97.118,63.356,87.243,45.12,70.366,30.034z"/><linearGradient id="SVGID_00000101099422036928204030000008671695425169522826_" x1="155.031" x2="191.787" y1="83" y2="83" gradientUnits="userSpaceOnUse"><stop offset="0" style="stop-color:#3a3c44"/><stop offset=".057" style="stop-color:#44464f"/><stop offset=".375" style="stop-color:#777a85"/><stop offset=".649" style="stop-color:#9da0ad"/><stop offset=".867" style="stop-color:#b4b7c5"/><stop offset="1" style="stop-color:#bcc0ce"/></linearGradient><path style="fill:url(#SVGID_00000101099422036928204030000008671695425169522826_)" d="M191.787,163.186V2.815 C168.598,25.654,155.031,53.26,155.031,83C155.031,112.74,168.598,140.346,191.787,163.186z"/><linearGradient id="SVGID_00000150819143585273253250000001048583295349598875_" x1="123.586" x2="154.983" y1="83" y2="83" gradientUnits="userSpaceOnUse"><stop offset="0" style="stop-color:#3a3c44"/><stop offset=".057" style="stop-color:#44464f"/><stop offset=".375" style="stop-color:#777a85"/><stop offset=".649" style="stop-color:#9da0ad"/><stop offset=".867" style="stop-color:#b4b7c5"/><stop offset="1" style="stop-color:#bcc0ce"/></linearGradient><path style="fill:url(#SVGID_00000150819143585273253250000001048583295349598875_)" d="M154.983,148.564l0-131.128 C135.176,36.111,123.586,58.683,123.586,83C123.586,107.317,135.176,129.889,154.983,148.564z"/><linearGradient id="SVGID_00000153704374881543245370000000829605961779771287_" x1="96.786" x2="123.538" y1="83" y2="83" gradientUnits="userSpaceOnUse"><stop offset="0" style="stop-color:#3a3c44"/><stop offset=".057" style="stop-color:#44464f"/><stop offset=".375" style="stop-color:#777a85"/><stop offset=".649" style="stop-color:#9da0ad"/><stop offset=".867" style="stop-color:#b4b7c5"/><stop offset="1" style="stop-color:#bcc0ce"/></linearGradient><path style="fill:url(#SVGID_00000153704374881543245370000000829605961779771287_)" d="M123.538,135.966l0-105.933 C106.661,45.12,96.786,63.356,96.786,83C96.786,102.644,106.661,120.88,123.538,135.966z"/></g><g><linearGradient id="SVGID_00000116952306490977964160000009399281617506765753_" x1="2.213" x2="38.969" y1="83" y2="83" gradientUnits="userSpaceOnUse"><stop offset="0" style="stop-color:#ffc1e5"/><stop offset=".092" style="stop-color:#ffbedc"/><stop offset=".242" style="stop-color:#ffb4c4"/><stop offset=".431" style="stop-color:#ffa59c"/><stop offset=".652" style="stop-color:#ff9065"/><stop offset=".898" style="stop-color:#ff761f"/><stop offset="1" style="stop-color:#ff6a00"/></linearGradient><path style="fill:url(#SVGID_00000116952306490977964160000009399281617506765753_)" d="M2.213,2.815l0,160.371 C25.402,140.346,38.969,112.74,38.969,83C38.969,53.26,25.402,25.654,2.213,2.815z"/><linearGradient id="SVGID_00000047040287388134019100000009225513992087495815_" x1="38.969" x2="70.366" y1="83" y2="83" gradientUnits="userSpaceOnUse"><stop offset="0" style="stop-color:#ffc1e5"/><stop offset=".092" style="stop-color:#ffbedc"/><stop offset=".242" style="stop-color:#ffb4c4"/><stop offset=".431" style="stop-color:#ffa59c"/><stop offset=".652" style="stop-color:#ff9065"/><stop offset=".898" style="stop-color:#ff761f"/><stop offset="1" style="stop-color:#ff6a00"/></linearGradient><path style="fill:url(#SVGID_00000047040287388134019100000009225513992087495815_)" d="M38.969,17.436l0,131.128 C58.776,129.889,70.366,107.317,70.366,83C70.366,58.683,58.776,36.111,38.969,17.436z"/><linearGradient id="SVGID_00000089572309291457674380000008583879398014395568_" x1="70.366" x2="97.118" y1="83" y2="83" gradientUnits="userSpaceOnUse"><stop offset="0" style="stop-color:#ffc1e5"/><stop offset=".092" style="stop-color:#ffbedc"/><stop offset=".242" style="stop-color:#ffb4c4"/><stop offset=".431" style="stop-color:#ffa59c"/><stop offset=".652" style="stop-color:#ff9065"/><stop offset=".898" style="stop-color:#ff761f"/><stop offset="1" style="stop-color:#ff6a00"/></linearGradient><path style="fill:url(#SVGID_00000089572309291457674380000008583879398014395568_)" d="M70.366,30.034l0,105.933 C87.243,120.88,97.118,102.644,97.118,83C97.118,63.356,87.243,45.12,70.366,30.034z"/><linearGradient id="SVGID_00000118395314593543216430000015226038220387614911_" x1="155.031" x2="191.787" y1="83" y2="83" gradientUnits="userSpaceOnUse"><stop offset="0" style="stop-color:#ff6a00"/><stop offset=".102" style="stop-color:#ff761f"/><stop offset=".347" style="stop-color:#ff9065"/><stop offset=".569" style="stop-color:#ffa59c"/><stop offset=".758" style="stop-color:#ffb4c4"/><stop offset=".908" style="stop-color:#ffbedc"/><stop offset="1" style="stop-color:#ffc1e5"/></linearGradient><path style="fill:url(#SVGID_00000118395314593543216430000015226038220387614911_)" d="M191.787,163.186V2.815 C168.598,25.654,155.031,53.26,155.031,83C155.031,112.74,168.598,140.346,191.787,163.186z"/><linearGradient id="SVGID_00000033337460495183914910000002070858179609945476_" x1="123.586" x2="154.983" y1="83" y2="83" gradientUnits="userSpaceOnUse"><stop offset="0" style="stop-color:#ff6a00"/><stop offset=".102" style="stop-color:#ff761f"/><stop offset=".347" style="stop-color:#ff9065"/><stop offset=".569" style="stop-color:#ffa59c"/><stop offset=".758" style="stop-color:#ffb4c4"/><stop offset=".908" style="stop-color:#ffbedc"/><stop offset="1" style="stop-color:#ffc1e5"/></linearGradient><path style="fill:url(#SVGID_00000033337460495183914910000002070858179609945476_)" d="M154.983,148.564l0-131.128 C135.176,36.111,123.586,58.683,123.586,83C123.586,107.317,135.176,129.889,154.983,148.564z"/><linearGradient id="SVGID_00000078025927371996332170000002128223340766351767_" x1="96.786" x2="123.538" y1="83" y2="83" gradientUnits="userSpaceOnUse"><stop offset="0" style="stop-color:#ff6a00"/><stop offset=".102" style="stop-color:#ff761f"/><stop offset=".347" style="stop-color:#ff9065"/><stop offset=".569" style="stop-color:#ffa59c"/><stop offset=".758" style="stop-color:#ffb4c4"/><stop offset=".908" style="stop-color:#ffbedc"/><stop offset="1" style="stop-color:#ffc1e5"/></linearGradient><path style="fill:url(#SVGID_00000078025927371996332170000002128223340766351767_)" d="M123.538,135.966l0-105.933 C106.661,45.12,96.786,63.356,96.786,83C96.786,102.644,106.661,120.88,123.538,135.966z"/></g></g></svg>