<svg xmlns="http://www.w3.org/2000/svg" xmlns:xlink="http://www.w3.org/1999/xlink" id="Layer_1" x="0" y="0" version="1.1" viewBox="0 0 1440 1264.257" xml:space="preserve" style="enable-background:new 0 0 1440 1264.257"><g style="opacity:.2"><linearGradient id="SVGID_1_" x1="715.449" x2="924.809" y1="634.125" y2="634.125" gradientTransform="matrix(1 0 0 -1 0 1266.2568)" gradientUnits="userSpaceOnUse"><stop offset="0" style="stop-color:#f4f2f0"/><stop offset="1" style="stop-color:#0a0b0c"/></linearGradient><path style="fill:url(#SVGID_1_)" d="M924.809,1047.469V216.794c-132.043,118.303-209.36,261.297-209.36,415.327 C715.449,786.15,792.73,929.166,924.809,1047.469z"/><linearGradient id="SVGID_00000083089556038380864370000005992528940614971820_" x1="916.563" x2="1162.19" y1="634.119" y2="634.119" gradientTransform="matrix(1 0 0 -1 0 1266.2568)" gradientUnits="userSpaceOnUse"><stop offset="0" style="stop-color:#f4f2f0"/><stop offset="1" style="stop-color:#0a0b0c"/></linearGradient><path style="fill:url(#SVGID_00000083089556038380864370000005992528940614971820_)" d="M1162.19,1146.562V117.714 c-154.92,146.526-245.627,323.634-245.627,514.41C916.563,822.901,1007.23,1000.035,1162.19,1146.562z"/><linearGradient id="SVGID_00000109727997283524300640000012361164727857792937_" x1="1152.49" x2="1440" y1="634.138" y2="634.138" gradientTransform="matrix(1 0 0 -1 0 1266.2568)" gradientUnits="userSpaceOnUse"><stop offset="0" style="stop-color:#f4f2f0"/><stop offset="1" style="stop-color:#0a0b0c"/></linearGradient><path style="fill:url(#SVGID_00000109727997283524300640000012361164727857792937_)" d="M1440,1260.492V3.745 c-181.33,178.983-287.51,395.322-287.51,628.357C1152.49,865.137,1258.62,1081.509,1440,1260.492z"/><linearGradient id="SVGID_00000126282990636251959730000015713384143843769006_" x1="515.979" x2="725.338" y1="634.125" y2="634.125" gradientTransform="matrix(1 0 0 -1 0 1266.2568)" gradientUnits="userSpaceOnUse"><stop offset="0" style="stop-color:#0a0b0c"/><stop offset="1" style="stop-color:#f4f2f0"/></linearGradient><path style="fill:url(#SVGID_00000126282990636251959730000015713384143843769006_)" d="M515.979,216.794v830.675 c132.042-118.303,209.359-261.297,209.359-415.327C725.338,478.113,648.069,335.097,515.979,216.794z"/><linearGradient id="SVGID_00000073690916921060149040000012315083206875225732_" x1="278.599" x2="524.225" y1="634.119" y2="634.119" gradientTransform="matrix(1 0 0 -1 0 1266.2568)" gradientUnits="userSpaceOnUse"><stop offset="0" style="stop-color:#0a0b0c"/><stop offset="1" style="stop-color:#f4f2f0"/></linearGradient><path style="fill:url(#SVGID_00000073690916921060149040000012315083206875225732_)" d="M278.599,117.714v1028.848 c154.915-146.527,245.626-323.634,245.626-514.411C524.225,441.376,433.571,264.24,278.599,117.714z"/><linearGradient id="SVGID_00000052103944377896444550000005925426485479001994_" x1="0" x2="287.514" y1="634.118" y2="634.118" gradientTransform="matrix(1 0 0 -1 0 1266.2568)" gradientUnits="userSpaceOnUse"><stop offset="0" style="stop-color:#0a0b0c"/><stop offset="1" style="stop-color:#f4f2f0"/></linearGradient><path style="fill:url(#SVGID_00000052103944377896444550000005925426485479001994_)" d="M0,3.765v1256.746 c181.335-178.983,287.514-395.322,287.514-628.356C287.514,399.12,181.401,182.748,0,3.765z"/></g></svg>