<svg xmlns="http://www.w3.org/2000/svg" xmlns:xlink="http://www.w3.org/1999/xlink" x="0" y="0" version="1.1" viewBox="0 0 194 166" xml:space="preserve" style="enable-background:new 0 0 194 166"><g id="rl-icon-on-blue2"><g><linearGradient id="SVGID_1_" x1="2.213" x2="38.969" y1="83" y2="83" gradientUnits="userSpaceOnUse"><stop offset="0" style="stop-color:#90d8fc"/><stop offset="1" style="stop-color:#ffc1e5"/></linearGradient><path style="fill:url(#SVGID_1_)" d="M2.213,2.815l0,160.371C25.402,140.346,38.969,112.74,38.969,83 C38.969,53.26,25.402,25.654,2.213,2.815z"/><linearGradient id="SVGID_00000018917490556301974570000013146239861075221632_" x1="38.969" x2="70.366" y1="83" y2="83" gradientUnits="userSpaceOnUse"><stop offset="0" style="stop-color:#90d8fc"/><stop offset="1" style="stop-color:#ffc1e5"/></linearGradient><path style="fill:url(#SVGID_00000018917490556301974570000013146239861075221632_)" d="M38.969,17.436l0,131.128 C58.776,129.889,70.366,107.317,70.366,83C70.366,58.683,58.776,36.111,38.969,17.436z"/><linearGradient id="SVGID_00000101812050658171525990000005136695524214485919_" x1="70.366" x2="97.118" y1="83" y2="83" gradientUnits="userSpaceOnUse"><stop offset="0" style="stop-color:#90d8fc"/><stop offset="1" style="stop-color:#ffc1e5"/></linearGradient><path style="fill:url(#SVGID_00000101812050658171525990000005136695524214485919_)" d="M70.366,30.034l0,105.933 C87.243,120.88,97.118,102.644,97.118,83C97.118,63.356,87.243,45.12,70.366,30.034z"/><linearGradient id="SVGID_00000116945293157714512930000003907735958354797717_" x1="155.031" x2="191.787" y1="83" y2="83" gradientUnits="userSpaceOnUse"><stop offset="0" style="stop-color:#ffc1e5"/><stop offset="1" style="stop-color:#90d8fc"/></linearGradient><path style="fill:url(#SVGID_00000116945293157714512930000003907735958354797717_)" d="M191.787,163.186V2.815 C168.598,25.654,155.031,53.26,155.031,83C155.031,112.74,168.598,140.346,191.787,163.186z"/><linearGradient id="SVGID_00000021821842580093286550000002285551031601989526_" x1="123.586" x2="154.983" y1="83" y2="83" gradientUnits="userSpaceOnUse"><stop offset="0" style="stop-color:#ffc1e5"/><stop offset="1" style="stop-color:#90d8fc"/></linearGradient><path style="fill:url(#SVGID_00000021821842580093286550000002285551031601989526_)" d="M154.983,148.564l0-131.128 C135.176,36.111,123.586,58.683,123.586,83C123.586,107.317,135.176,129.889,154.983,148.564z"/><linearGradient id="SVGID_00000035514068329230019500000000327271643044241566_" x1="96.786" x2="123.538" y1="83" y2="83" gradientUnits="userSpaceOnUse"><stop offset="0" style="stop-color:#ffc1e5"/><stop offset="1" style="stop-color:#90d8fc"/></linearGradient><path style="fill:url(#SVGID_00000035514068329230019500000000327271643044241566_)" d="M123.538,135.966l0-105.933 C106.661,45.12,96.786,63.356,96.786,83C96.786,102.644,106.661,120.88,123.538,135.966z"/></g></g></svg>