<svg xmlns="http://www.w3.org/2000/svg" xmlns:xlink="http://www.w3.org/1999/xlink" x="0" y="0" version="1.1" viewBox="0 0 194 166" xml:space="preserve" style="enable-background:new 0 0 194 166"><g id="rl-icon-on-blue"><g><linearGradient id="SVGID_1_" x1="2.213" x2="38.969" y1="83" y2="83" gradientUnits="userSpaceOnUse"><stop offset="0" style="stop-color:#90d8fc"/><stop offset=".132" style="stop-color:#87d0fa"/><stop offset=".347" style="stop-color:#6fb9f3"/><stop offset=".619" style="stop-color:#4793e8"/><stop offset=".933" style="stop-color:#1060d9"/><stop offset="1" style="stop-color:#0454d6"/></linearGradient><path style="fill:url(#SVGID_1_)" d="M2.213,2.815l0,160.371C25.402,140.346,38.969,112.74,38.969,83 C38.969,53.26,25.402,25.654,2.213,2.815z"/><linearGradient id="SVGID_00000120549505869621067640000002222398623129163918_" x1="38.969" x2="70.366" y1="83" y2="83" gradientUnits="userSpaceOnUse"><stop offset="0" style="stop-color:#90d8fc"/><stop offset=".132" style="stop-color:#87d0fa"/><stop offset=".347" style="stop-color:#6fb9f3"/><stop offset=".619" style="stop-color:#4793e8"/><stop offset=".933" style="stop-color:#1060d9"/><stop offset="1" style="stop-color:#0454d6"/></linearGradient><path style="fill:url(#SVGID_00000120549505869621067640000002222398623129163918_)" d="M38.969,17.436l0,131.128 C58.776,129.889,70.366,107.317,70.366,83C70.366,58.683,58.776,36.111,38.969,17.436z"/><linearGradient id="SVGID_00000132806896744740056340000009014332993931362963_" x1="70.366" x2="97.118" y1="83" y2="83" gradientUnits="userSpaceOnUse"><stop offset="0" style="stop-color:#90d8fc"/><stop offset=".164" style="stop-color:#8cd4fb"/><stop offset=".334" style="stop-color:#7fc8f7"/><stop offset=".507" style="stop-color:#6bb5f2"/><stop offset=".681" style="stop-color:#4e99ea"/><stop offset=".856" style="stop-color:#2976e0"/><stop offset="1" style="stop-color:#0454d6"/></linearGradient><path style="fill:url(#SVGID_00000132806896744740056340000009014332993931362963_)" d="M70.366,30.034l0,105.933 C87.243,120.88,97.118,102.644,97.118,83C97.118,63.356,87.243,45.12,70.366,30.034z"/><linearGradient id="SVGID_00000075156831327509961810000003127697476546517897_" x1="155.031" x2="191.787" y1="83" y2="83" gradientUnits="userSpaceOnUse"><stop offset="0" style="stop-color:#0454d6"/><stop offset=".067" style="stop-color:#1060d9"/><stop offset=".381" style="stop-color:#4793e8"/><stop offset=".653" style="stop-color:#6fb9f3"/><stop offset=".868" style="stop-color:#87d0fa"/><stop offset="1" style="stop-color:#90d8fc"/></linearGradient><path style="fill:url(#SVGID_00000075156831327509961810000003127697476546517897_)" d="M191.787,163.186V2.815 C168.598,25.654,155.031,53.26,155.031,83C155.031,112.74,168.598,140.346,191.787,163.186z"/><linearGradient id="SVGID_00000096781999626455357910000005784977936500555692_" x1="123.586" x2="154.983" y1="83" y2="83" gradientUnits="userSpaceOnUse"><stop offset="0" style="stop-color:#0454d6"/><stop offset=".067" style="stop-color:#1060d9"/><stop offset=".381" style="stop-color:#4793e8"/><stop offset=".653" style="stop-color:#6fb9f3"/><stop offset=".868" style="stop-color:#87d0fa"/><stop offset="1" style="stop-color:#90d8fc"/></linearGradient><path style="fill:url(#SVGID_00000096781999626455357910000005784977936500555692_)" d="M154.983,148.564l0-131.128 C135.176,36.111,123.586,58.683,123.586,83C123.586,107.317,135.176,129.889,154.983,148.564z"/><linearGradient id="SVGID_00000087385063409518931340000005954549038446885762_" x1="96.786" x2="123.538" y1="83" y2="83" gradientUnits="userSpaceOnUse"><stop offset="0" style="stop-color:#0454d6"/><stop offset=".144" style="stop-color:#2976e0"/><stop offset=".319" style="stop-color:#4e99ea"/><stop offset=".493" style="stop-color:#6bb5f2"/><stop offset=".666" style="stop-color:#7fc8f7"/><stop offset=".836" style="stop-color:#8cd4fb"/><stop offset="1" style="stop-color:#90d8fc"/></linearGradient><path style="fill:url(#SVGID_00000087385063409518931340000005954549038446885762_)" d="M123.538,135.966l0-105.933 C106.661,45.12,96.786,63.356,96.786,83C96.786,102.644,106.661,120.88,123.538,135.966z"/></g></g></svg>