<svg xmlns="http://www.w3.org/2000/svg" xmlns:xlink="http://www.w3.org/1999/xlink" x="0" y="0" version="1.1" viewBox="0 0 194 166" xml:space="preserve" style="enable-background:new 0 0 194 166"><g id="rl-icon-on-orange"><g><linearGradient id="SVGID_1_" x1="2.213" x2="38.969" y1="83" y2="83" gradientUnits="userSpaceOnUse"><stop offset="0" style="stop-color:#90d8fc"/><stop offset=".089" style="stop-color:#94d7f3"/><stop offset=".234" style="stop-color:#9ed4db"/><stop offset=".416" style="stop-color:#afceb3"/><stop offset=".63" style="stop-color:#c6c77c"/><stop offset=".868" style="stop-color:#e3be36"/><stop offset="1" style="stop-color:#f5b80c"/></linearGradient><path style="fill:url(#SVGID_1_)" d="M2.213,2.815l0,160.371C25.402,140.346,38.969,112.74,38.969,83 C38.969,53.26,25.402,25.654,2.213,2.815z"/><linearGradient id="SVGID_00000000902689777224156450000013243614507462372491_" x1="38.969" x2="70.366" y1="83" y2="83" gradientUnits="userSpaceOnUse"><stop offset="0" style="stop-color:#90d8fc"/><stop offset=".089" style="stop-color:#94d7f3"/><stop offset=".234" style="stop-color:#9ed4db"/><stop offset=".416" style="stop-color:#afceb3"/><stop offset=".63" style="stop-color:#c6c77c"/><stop offset=".868" style="stop-color:#e3be36"/><stop offset="1" style="stop-color:#f5b80c"/></linearGradient><path style="fill:url(#SVGID_00000000902689777224156450000013243614507462372491_)" d="M38.969,17.436l0,131.128 C58.776,129.889,70.366,107.317,70.366,83C70.366,58.683,58.776,36.111,38.969,17.436z"/><linearGradient id="SVGID_00000179636951438167989140000016461081757773062335_" x1="70.366" x2="97.118" y1="83" y2="83" gradientUnits="userSpaceOnUse"><stop offset="0" style="stop-color:#90d8fc"/><stop offset=".089" style="stop-color:#94d7f3"/><stop offset=".234" style="stop-color:#9ed4db"/><stop offset=".416" style="stop-color:#afceb3"/><stop offset=".63" style="stop-color:#c6c77c"/><stop offset=".868" style="stop-color:#e3be36"/><stop offset="1" style="stop-color:#f5b80c"/></linearGradient><path style="fill:url(#SVGID_00000179636951438167989140000016461081757773062335_)" d="M70.366,30.034l0,105.933 C87.243,120.88,97.118,102.644,97.118,83C97.118,63.356,87.243,45.12,70.366,30.034z"/><linearGradient id="SVGID_00000169530311072468226510000000408579018882448541_" x1="155.031" x2="191.787" y1="83" y2="83" gradientUnits="userSpaceOnUse"><stop offset="0" style="stop-color:#f5b80c"/><stop offset=".133" style="stop-color:#e3be36"/><stop offset=".369" style="stop-color:#c6c77c"/><stop offset=".584" style="stop-color:#afceb3"/><stop offset=".766" style="stop-color:#9ed4db"/><stop offset=".911" style="stop-color:#94d7f3"/><stop offset="1" style="stop-color:#90d8fc"/></linearGradient><path style="fill:url(#SVGID_00000169530311072468226510000000408579018882448541_)" d="M191.787,163.186V2.815 C168.598,25.654,155.031,53.26,155.031,83C155.031,112.74,168.598,140.346,191.787,163.186z"/><linearGradient id="SVGID_00000059285914200529755260000008774113945333237675_" x1="123.586" x2="154.983" y1="83" y2="83" gradientUnits="userSpaceOnUse"><stop offset="0" style="stop-color:#f5b80c"/><stop offset=".133" style="stop-color:#e3be36"/><stop offset=".369" style="stop-color:#c6c77c"/><stop offset=".584" style="stop-color:#afceb3"/><stop offset=".766" style="stop-color:#9ed4db"/><stop offset=".911" style="stop-color:#94d7f3"/><stop offset="1" style="stop-color:#90d8fc"/></linearGradient><path style="fill:url(#SVGID_00000059285914200529755260000008774113945333237675_)" d="M154.983,148.564l0-131.128 C135.176,36.111,123.586,58.683,123.586,83C123.586,107.317,135.176,129.889,154.983,148.564z"/><linearGradient id="SVGID_00000183230851122893585710000004100704841368427662_" x1="96.786" x2="123.538" y1="83" y2="83" gradientUnits="userSpaceOnUse"><stop offset="0" style="stop-color:#f5b80c"/><stop offset=".133" style="stop-color:#e3be36"/><stop offset=".369" style="stop-color:#c6c77c"/><stop offset=".584" style="stop-color:#afceb3"/><stop offset=".766" style="stop-color:#9ed4db"/><stop offset=".911" style="stop-color:#94d7f3"/><stop offset="1" style="stop-color:#90d8fc"/></linearGradient><path style="fill:url(#SVGID_00000183230851122893585710000004100704841368427662_)" d="M123.538,135.966l0-105.933 C106.661,45.12,96.786,63.356,96.786,83C96.786,102.644,106.661,120.88,123.538,135.966z"/></g></g></svg>