<svg xmlns="http://www.w3.org/2000/svg" xmlns:xlink="http://www.w3.org/1999/xlink" x="0" y="0" version="1.1" viewBox="0 0 194 166" xml:space="preserve" style="enable-background:new 0 0 194 166"><g id="rl-icon-on-yellow"><g><linearGradient id="SVGID_1_" x1="2.213" x2="38.969" y1="83" y2="83" gradientUnits="userSpaceOnUse"><stop offset="0" style="stop-color:#f79800"/><stop offset=".17" style="stop-color:#f88f00"/><stop offset=".448" style="stop-color:#fa7700"/><stop offset=".796" style="stop-color:#fd4f00"/><stop offset="1" style="stop-color:#ff3500"/></linearGradient><path style="fill:url(#SVGID_1_)" d="M2.213,2.815l0,160.371C25.402,140.346,38.969,112.74,38.969,83 C38.969,53.26,25.402,25.654,2.213,2.815z"/><linearGradient id="SVGID_00000094598918610633193510000008484481709267471020_" x1="38.969" x2="70.366" y1="83" y2="83" gradientUnits="userSpaceOnUse"><stop offset="0" style="stop-color:#f79800"/><stop offset=".17" style="stop-color:#f88f00"/><stop offset=".448" style="stop-color:#fa7700"/><stop offset=".796" style="stop-color:#fd4f00"/><stop offset="1" style="stop-color:#ff3500"/></linearGradient><path style="fill:url(#SVGID_00000094598918610633193510000008484481709267471020_)" d="M38.969,17.436l0,131.128 C58.776,129.889,70.366,107.317,70.366,83C70.366,58.683,58.776,36.111,38.969,17.436z"/><linearGradient id="SVGID_00000165235450655537060960000014125800966859023546_" x1="70.366" x2="97.118" y1="83" y2="83" gradientUnits="userSpaceOnUse"><stop offset="0" style="stop-color:#f79800"/><stop offset=".17" style="stop-color:#f88f00"/><stop offset=".448" style="stop-color:#fa7700"/><stop offset=".796" style="stop-color:#fd4f00"/><stop offset="1" style="stop-color:#ff3500"/></linearGradient><path style="fill:url(#SVGID_00000165235450655537060960000014125800966859023546_)" d="M70.366,30.034l0,105.933 C87.243,120.88,97.118,102.644,97.118,83C97.118,63.356,87.243,45.12,70.366,30.034z"/><linearGradient id="SVGID_00000014623981948479508430000007707696789150222729_" x1="155.031" x2="191.787" y1="83" y2="83" gradientUnits="userSpaceOnUse"><stop offset="0" style="stop-color:#ff3500"/><stop offset=".204" style="stop-color:#fd4f00"/><stop offset=".552" style="stop-color:#fa7700"/><stop offset=".83" style="stop-color:#f88f00"/><stop offset="1" style="stop-color:#f79800"/></linearGradient><path style="fill:url(#SVGID_00000014623981948479508430000007707696789150222729_)" d="M191.787,163.186V2.815 C168.598,25.654,155.031,53.26,155.031,83C155.031,112.74,168.598,140.346,191.787,163.186z"/><linearGradient id="SVGID_00000134209075670456946920000003420269651283007881_" x1="123.586" x2="154.983" y1="83" y2="83" gradientUnits="userSpaceOnUse"><stop offset="0" style="stop-color:#ff3500"/><stop offset=".204" style="stop-color:#fd4f00"/><stop offset=".552" style="stop-color:#fa7700"/><stop offset=".83" style="stop-color:#f88f00"/><stop offset="1" style="stop-color:#f79800"/></linearGradient><path style="fill:url(#SVGID_00000134209075670456946920000003420269651283007881_)" d="M154.983,148.564l0-131.128 C135.176,36.111,123.586,58.683,123.586,83C123.586,107.317,135.176,129.889,154.983,148.564z"/><linearGradient id="SVGID_00000129201780767670232200000004979022112115264128_" x1="96.786" x2="123.538" y1="83" y2="83" gradientUnits="userSpaceOnUse"><stop offset="0" style="stop-color:#ff3500"/><stop offset=".204" style="stop-color:#fd4f00"/><stop offset=".552" style="stop-color:#fa7700"/><stop offset=".83" style="stop-color:#f88f00"/><stop offset="1" style="stop-color:#f79800"/></linearGradient><path style="fill:url(#SVGID_00000129201780767670232200000004979022112115264128_)" d="M123.538,135.966l0-105.933 C106.661,45.12,96.786,63.356,96.786,83C96.786,102.644,106.661,120.88,123.538,135.966z"/></g></g></svg>